<mxfile host="65bd71144e">
    <diagram id="nZBdtlKTm2JA81rJCcJa" name="Page-1">
        <mxGraphModel dx="1682" dy="461" grid="1" gridSize="10" guides="1" tooltips="1" connect="1" arrows="1" fold="1" page="1" pageScale="1" pageWidth="850" pageHeight="1100" math="0" shadow="0">
            <root>
                <mxCell id="0"/>
                <mxCell id="1" parent="0"/>
                <mxCell id="4" style="edgeStyle=none;html=1;exitX=1;exitY=0.25;exitDx=0;exitDy=0;fontSize=14;entryX=0;entryY=0.25;entryDx=0;entryDy=0;" edge="1" parent="1" source="3" target="7">
                    <mxGeometry relative="1" as="geometry">
                        <mxPoint x="520" y="280" as="targetPoint"/>
                    </mxGeometry>
                </mxCell>
                <mxCell id="5" style="edgeStyle=none;html=1;exitX=0;exitY=0.75;exitDx=0;exitDy=0;fontSize=14;" edge="1" parent="1" source="3">
                    <mxGeometry relative="1" as="geometry">
                        <mxPoint x="280" y="340" as="targetPoint"/>
                    </mxGeometry>
                </mxCell>
                <mxCell id="3" value="&lt;font style=&quot;font-size: 14px;&quot;&gt;next&lt;br&gt;&lt;br&gt;&lt;br&gt;----------&lt;br&gt;&lt;br&gt;&lt;br&gt;prev&lt;/font&gt;" style="rounded=0;whiteSpace=wrap;html=1;" vertex="1" parent="1">
                    <mxGeometry x="360" y="250" width="60" height="120" as="geometry"/>
                </mxCell>
                <mxCell id="6" value="void&amp;nbsp; op_swap(stack_t **head, unsigned int line_number)&lt;br&gt;{&lt;br&gt;&lt;span style=&quot;white-space: pre;&quot;&gt;&#9;&lt;/span&gt;stack_t *second_node = NULL;&lt;br&gt;&lt;span style=&quot;white-space: pre;&quot;&gt;&#9;&lt;/span&gt;stack_t *third_node = NULL;&lt;br&gt;&lt;br&gt;&lt;span style=&quot;&quot;&gt;&#9;&lt;/span&gt;&lt;span style=&quot;white-space: pre;&quot;&gt;&#9;&lt;/span&gt;if (head == NULL || *head == NULL || (*head)-&amp;gt;next == NULL)&lt;br&gt;&lt;span style=&quot;&quot;&gt;&#9;&lt;/span&gt;&lt;span style=&quot;&quot;&gt;&#9;&lt;/span&gt;&lt;span style=&quot;white-space: pre;&quot;&gt;&#9;&lt;/span&gt;&lt;span style=&quot;white-space: pre;&quot;&gt;&#9;&lt;/span&gt;printf( &lt;span style=&quot;color: rgb(221, 73, 110); font-family: Menlo, Monaco, Consolas, &amp;quot;Courier New&amp;quot;, monospace; font-size: 12.6px; background-color: rgb(43, 20, 26);&quot;&gt;&quot;L%d: can't swap, stack too short&quot;, line_number);&lt;br&gt;&lt;span style=&quot;white-space: pre;&quot;&gt;&#9;&lt;/span&gt;free(optokens);&lt;br&gt;&lt;/span&gt;&lt;span style=&quot;white-space: pre;&quot;&gt;&#9;&lt;/span&gt;&lt;span style=&quot;white-space: pre;&quot;&gt;&#9;&lt;/span&gt;exit(EXIT_FAILURE);&lt;br&gt;&lt;span style=&quot;white-space: pre;&quot;&gt;&#9;&lt;/span&gt;&lt;br&gt;&lt;span style=&quot;white-space: pre;&quot;&gt;&#9;&lt;/span&gt;second_node = (*head)-&amp;gt;next;&lt;br&gt;&lt;span style=&quot;white-space: pre;&quot;&gt;&#9;&lt;/span&gt;if (second_node-&amp;gt;next != NULL)&lt;br&gt;&lt;span style=&quot;white-space: pre;&quot;&gt;&#9;&lt;/span&gt;&lt;span style=&quot;white-space: pre;&quot;&gt;&#9;&lt;/span&gt;third_node = second_node-&amp;gt;next;&lt;br&gt;&lt;span style=&quot;white-space: pre;&quot;&gt;&#9;&lt;/span&gt;else&lt;br&gt;&lt;span style=&quot;white-space: pre;&quot;&gt;&#9;&lt;/span&gt;&lt;span style=&quot;white-space: pre;&quot;&gt;&#9;&lt;/span&gt;{&lt;br&gt;&lt;span style=&quot;white-space: pre;&quot;&gt;&#9;&lt;/span&gt;&lt;span style=&quot;white-space: pre;&quot;&gt;&#9;&lt;/span&gt;&lt;span style=&quot;white-space: pre;&quot;&gt;&#9;&lt;/span&gt;second_node-&amp;gt;next = *head;&lt;br&gt;&lt;span style=&quot;white-space: pre;&quot;&gt;&#9;&lt;/span&gt;&lt;span style=&quot;white-space: pre;&quot;&gt;&#9;&lt;/span&gt;&lt;span style=&quot;white-space: pre;&quot;&gt;&#9;&lt;/span&gt;second_node-&amp;gt;prev = NULL;&lt;br&gt;&lt;span style=&quot;white-space: pre;&quot;&gt;&#9;&lt;/span&gt;&lt;span style=&quot;white-space: pre;&quot;&gt;&#9;&lt;/span&gt;&lt;span style=&quot;white-space: pre;&quot;&gt;&#9;&lt;/span&gt;(*head)-&amp;gt;next = third_node;&lt;br&gt;&lt;span style=&quot;white-space: pre;&quot;&gt;&#9;&lt;/span&gt;&lt;span style=&quot;white-space: pre;&quot;&gt;&#9;&lt;/span&gt;&lt;span style=&quot;white-space: pre;&quot;&gt;&#9;&lt;/span&gt;(*head)-&amp;gt;prev = second_node;&lt;br&gt;&lt;span style=&quot;white-space: pre;&quot;&gt;&#9;&lt;/span&gt;&lt;span style=&quot;white-space: pre;&quot;&gt;&#9;&lt;/span&gt;&lt;span style=&quot;white-space: pre;&quot;&gt;&#9;&lt;/span&gt;if (third_node != NULL)&lt;br&gt;&lt;span style=&quot;white-space: pre;&quot;&gt;&#9;&lt;/span&gt;&lt;span style=&quot;white-space: pre;&quot;&gt;&#9;&lt;/span&gt;&lt;span style=&quot;white-space: pre;&quot;&gt;&#9;&lt;/span&gt;&lt;span style=&quot;white-space: pre;&quot;&gt;&#9;&lt;/span&gt;third_node-&amp;gt;prev = *head;&lt;br&gt;&lt;span style=&quot;white-space: pre;&quot;&gt;&#9;&lt;/span&gt;&lt;span style=&quot;white-space: pre;&quot;&gt;&#9;&lt;/span&gt;&lt;span style=&quot;white-space: pre;&quot;&gt;&#9;&lt;/span&gt;*head = second_node;&lt;br&gt;&lt;span style=&quot;white-space: pre;&quot;&gt;&#9;&lt;/span&gt;&lt;span style=&quot;white-space: pre;&quot;&gt;&#9;&lt;/span&gt;}&lt;br&gt;&lt;span style=&quot;white-space: pre;&quot;&gt;&#9;&lt;/span&gt;&lt;span style=&quot;white-space: pre;&quot;&gt;&#9;&lt;/span&gt;&lt;span style=&quot;white-space: pre;&quot;&gt;&#9;&lt;/span&gt;&lt;br&gt;&lt;br&gt;&lt;br&gt;}" style="text;strokeColor=none;align=left;fillColor=none;html=1;verticalAlign=top;whiteSpace=wrap;rounded=0;fontSize=14;" vertex="1" parent="1">
                    <mxGeometry x="10" y="431" width="830" height="460" as="geometry"/>
                </mxCell>
                <mxCell id="8" style="edgeStyle=none;html=1;exitX=1;exitY=0.25;exitDx=0;exitDy=0;fontSize=14;entryX=0;entryY=0.25;entryDx=0;entryDy=0;" edge="1" parent="1" source="7" target="9">
                    <mxGeometry relative="1" as="geometry">
                        <mxPoint x="650" y="280" as="targetPoint"/>
                    </mxGeometry>
                </mxCell>
                <mxCell id="11" style="edgeStyle=none;html=1;exitX=0;exitY=0.75;exitDx=0;exitDy=0;entryX=1;entryY=0.75;entryDx=0;entryDy=0;fontSize=14;" edge="1" parent="1" source="7" target="3">
                    <mxGeometry relative="1" as="geometry"/>
                </mxCell>
                <mxCell id="7" value="&lt;font style=&quot;font-size: 14px;&quot;&gt;next&lt;br&gt;&lt;br&gt;&lt;br&gt;----------&lt;br&gt;&lt;br&gt;&lt;br&gt;prev&lt;/font&gt;" style="rounded=0;whiteSpace=wrap;html=1;" vertex="1" parent="1">
                    <mxGeometry x="530" y="250" width="60" height="120" as="geometry"/>
                </mxCell>
                <mxCell id="10" style="edgeStyle=none;html=1;exitX=0;exitY=0.75;exitDx=0;exitDy=0;entryX=1;entryY=0.75;entryDx=0;entryDy=0;fontSize=14;" edge="1" parent="1" source="9" target="7">
                    <mxGeometry relative="1" as="geometry"/>
                </mxCell>
                <mxCell id="12" style="edgeStyle=none;html=1;exitX=1;exitY=0.25;exitDx=0;exitDy=0;fontSize=14;" edge="1" parent="1" source="9">
                    <mxGeometry relative="1" as="geometry">
                        <mxPoint x="800" y="280" as="targetPoint"/>
                    </mxGeometry>
                </mxCell>
                <mxCell id="9" value="&lt;font style=&quot;font-size: 14px;&quot;&gt;next&lt;br&gt;&lt;br&gt;&lt;br&gt;----------&lt;br&gt;&lt;br&gt;&lt;br&gt;prev&lt;/font&gt;" style="rounded=0;whiteSpace=wrap;html=1;" vertex="1" parent="1">
                    <mxGeometry x="660" y="250" width="60" height="120" as="geometry"/>
                </mxCell>
                <mxCell id="14" style="edgeStyle=none;html=1;exitX=0.5;exitY=1;exitDx=0;exitDy=0;entryX=0.38;entryY=-0.018;entryDx=0;entryDy=0;entryPerimeter=0;fontSize=14;" edge="1" parent="1" source="13" target="3">
                    <mxGeometry relative="1" as="geometry"/>
                </mxCell>
                <mxCell id="13" value="HEAD" style="whiteSpace=wrap;html=1;aspect=fixed;fontSize=14;fillColor=#a20025;fontColor=#ffffff;strokeColor=#6F0000;" vertex="1" parent="1">
                    <mxGeometry x="360" y="170" width="40" height="40" as="geometry"/>
                </mxCell>
                <mxCell id="17" style="edgeStyle=none;html=1;exitX=0.5;exitY=1;exitDx=0;exitDy=0;entryX=0.373;entryY=0.008;entryDx=0;entryDy=0;entryPerimeter=0;fontSize=14;" edge="1" parent="1" source="16" target="7">
                    <mxGeometry relative="1" as="geometry"/>
                </mxCell>
                <mxCell id="16" value="2nd&lt;br&gt;node" style="whiteSpace=wrap;html=1;aspect=fixed;fontSize=14;fillColor=#0050ef;fontColor=#ffffff;strokeColor=#001DBC;" vertex="1" parent="1">
                    <mxGeometry x="530" y="165" width="50" height="50" as="geometry"/>
                </mxCell>
                <mxCell id="29" style="edgeStyle=none;html=1;exitX=0;exitY=0.25;exitDx=0;exitDy=0;fontSize=14;" edge="1" parent="1" source="20">
                    <mxGeometry relative="1" as="geometry">
                        <mxPoint x="-20" y="225" as="targetPoint"/>
                    </mxGeometry>
                </mxCell>
                <mxCell id="30" style="edgeStyle=none;html=1;exitX=1;exitY=0.75;exitDx=0;exitDy=0;entryX=0;entryY=0.75;entryDx=0;entryDy=0;fontSize=14;" edge="1" parent="1" source="20" target="22">
                    <mxGeometry relative="1" as="geometry"/>
                </mxCell>
                <mxCell id="20" value="&lt;font style=&quot;font-size: 14px;&quot;&gt;next&lt;br&gt;&lt;br&gt;&lt;br&gt;----------&lt;br&gt;&lt;br&gt;&lt;br&gt;prev&lt;/font&gt;" style="rounded=0;whiteSpace=wrap;html=1;" vertex="1" parent="1">
                    <mxGeometry x="60" y="195" width="60" height="120" as="geometry"/>
                </mxCell>
                <mxCell id="27" style="edgeStyle=none;html=1;exitX=0;exitY=0;exitDx=0;exitDy=0;entryX=1;entryY=0;entryDx=0;entryDy=0;fontSize=14;" edge="1" parent="1" source="22" target="20">
                    <mxGeometry relative="1" as="geometry"/>
                </mxCell>
                <mxCell id="28" style="edgeStyle=none;html=1;exitX=1;exitY=0.75;exitDx=0;exitDy=0;fontSize=14;" edge="1" parent="1" source="22">
                    <mxGeometry relative="1" as="geometry">
                        <mxPoint x="330" y="285" as="targetPoint"/>
                    </mxGeometry>
                </mxCell>
                <mxCell id="22" value="&lt;font style=&quot;font-size: 14px;&quot;&gt;next&lt;br&gt;&lt;br&gt;&lt;br&gt;----------&lt;br&gt;&lt;br&gt;&lt;br&gt;prev&lt;/font&gt;" style="rounded=0;whiteSpace=wrap;html=1;" vertex="1" parent="1">
                    <mxGeometry x="230" y="195" width="60" height="120" as="geometry"/>
                </mxCell>
                <mxCell id="23" style="edgeStyle=none;html=1;exitX=0.5;exitY=1;exitDx=0;exitDy=0;fontSize=14;" edge="1" parent="1" source="24">
                    <mxGeometry relative="1" as="geometry">
                        <mxPoint x="240" y="190" as="targetPoint"/>
                    </mxGeometry>
                </mxCell>
                <mxCell id="24" value="HEAD" style="whiteSpace=wrap;html=1;aspect=fixed;fontSize=14;fillColor=#a20025;fontColor=#ffffff;strokeColor=#6F0000;" vertex="1" parent="1">
                    <mxGeometry x="60" y="115" width="40" height="40" as="geometry"/>
                </mxCell>
                <mxCell id="25" style="edgeStyle=none;html=1;exitX=0.5;exitY=1;exitDx=0;exitDy=0;entryX=0.373;entryY=0.008;entryDx=0;entryDy=0;entryPerimeter=0;fontSize=14;" edge="1" parent="1" source="26" target="22">
                    <mxGeometry relative="1" as="geometry"/>
                </mxCell>
                <mxCell id="26" value="2nd&lt;br&gt;node" style="whiteSpace=wrap;html=1;aspect=fixed;fontSize=14;fillColor=#0050ef;fontColor=#ffffff;strokeColor=#001DBC;" vertex="1" parent="1">
                    <mxGeometry x="230" y="110" width="50" height="50" as="geometry"/>
                </mxCell>
            </root>
        </mxGraphModel>
    </diagram>
</mxfile>
